<svg width="20" height="20" viewBox="0 0 20 20" fill="none" xmlns="http://www.w3.org/2000/svg">
<g clip-path="url(#clip0)">
<path d="M10.0032 4.86499C7.16741 4.86499 4.87158 7.16332 4.87158 9.99666C4.87158 12.8325 7.16991 15.1283 10.0032 15.1283C12.8391 15.1283 15.1349 12.83 15.1349 9.99666C15.1349 7.16082 12.8366 4.86499 10.0032 4.86499ZM10.0032 13.3275C8.16241 13.3275 6.67242 11.8367 6.67242 9.99666C6.67242 8.15666 8.16325 6.66582 10.0032 6.66582C11.8432 6.66582 13.3341 8.15666 13.3341 9.99666C13.3349 11.8367 11.8441 13.3275 10.0032 13.3275Z" fill="#5F696B"/>
<path d="M14.123 0.0650195C12.283 -0.0208139 7.72553 -0.0166472 5.88387 0.0650195C4.26553 0.140853 2.83803 0.531686 1.6872 1.68252C-0.236132 3.60585 0.0097011 6.19752 0.0097011 9.99835C0.0097011 13.8884 -0.206966 16.42 1.6872 18.3142C3.61803 20.2442 6.2472 19.9917 10.003 19.9917C13.8564 19.9917 15.1864 19.9942 16.5489 19.4667C18.4014 18.7475 19.7997 17.0917 19.9364 14.1175C20.023 12.2767 20.018 7.72002 19.9364 5.87835C19.7714 2.36752 17.8872 0.238353 14.123 0.0650195ZM17.0355 17.0417C15.7747 18.3025 14.0255 18.19 9.97887 18.19C5.8122 18.19 4.14137 18.2517 2.9222 17.0292C1.51803 15.6317 1.7722 13.3875 1.7722 9.98502C1.7722 5.38085 1.2997 2.06502 5.92053 1.82835C6.9822 1.79085 7.2947 1.77835 9.9672 1.77835L10.0047 1.80335C14.4455 1.80335 17.9297 1.33835 18.1389 5.95835C18.1864 7.01252 18.1972 7.32919 18.1972 9.99752C18.1964 14.1159 18.2747 15.7967 17.0355 17.0417Z" fill="#5F696B"/>
<path d="M15.3383 5.86171C16.0006 5.86171 16.5375 5.32482 16.5375 4.66254C16.5375 4.00026 16.0006 3.46338 15.3383 3.46338C14.676 3.46338 14.1392 4.00026 14.1392 4.66254C14.1392 5.32482 14.676 5.86171 15.3383 5.86171Z" fill="#5F696B"/>
</g>
<defs>
<clipPath id="clip0">
<rect width="20" height="20" fill="white"/>
</clipPath>
</defs>
</svg>
