<svg width="22" height="30" viewBox="0 0 22 30" fill="none" xmlns="http://www.w3.org/2000/svg">
<path d="M17.4046 0.937988H7.90832C7.86587 0.938847 7.8239 0.95014 7.78451 0.9713C6.72171 1.12204 5.73197 1.76425 4.98696 2.78654C4.24194 3.80883 3.78864 5.14672 3.70568 6.56817H1.22574C1.13246 6.56817 1.043 6.6176 0.977038 6.70559C0.911079 6.79358 0.874023 6.91292 0.874023 7.03735V15.4826C0.874023 15.6071 0.911079 15.7264 0.977038 15.8144C1.043 15.9024 1.13246 15.9518 1.22574 15.9518H3.47038L2.8271 17.6681C2.74664 17.8827 2.70863 18.1211 2.7167 18.3608C2.72476 18.6005 2.77863 18.8335 2.87318 19.0376C2.96772 19.2417 3.09982 19.4102 3.25691 19.5271C3.414 19.6439 3.59088 19.7053 3.77075 19.7053H10.639C10.7889 19.7053 10.9371 19.6629 11.0737 19.5809V28.6197C11.0737 28.7442 11.1108 28.8635 11.1768 28.9515C11.2427 29.0395 11.3322 29.0889 11.4255 29.0889H14.9426C15.0359 29.0889 15.1254 29.0395 15.1913 28.9515C15.2573 28.8635 15.2943 28.7442 15.2943 28.6197V15.9518H21.6252C21.7185 15.9518 21.8079 15.9024 21.8739 15.8144C21.9398 15.7264 21.9769 15.6071 21.9769 15.4826V7.03735C21.9755 5.42027 21.4933 3.86996 20.6362 2.72651C19.779 1.58306 18.6168 0.939851 17.4046 0.937988ZM8.26003 1.87635C8.76831 1.87536 9.27173 2.00818 9.74146 2.2672C10.2112 2.52621 10.638 2.90633 10.9974 3.38577C11.3568 3.86521 11.6417 4.43455 11.8359 5.06116C12.0301 5.68776 12.1296 6.35932 12.1289 7.03735V15.0134H10.722V7.03735C10.722 6.91292 10.685 6.79358 10.619 6.70559C10.5531 6.6176 10.4636 6.56817 10.3703 6.56817H4.40911C4.4976 5.28679 4.94142 4.09559 5.65369 3.22779C6.36596 2.35998 7.29539 1.87806 8.26003 1.87635ZM2.10502 15.0134L4.7246 11.891L5.0946 12.334C5.28805 12.5648 5.53849 12.6924 5.79803 12.6924C6.05757 12.6924 6.30801 12.5648 6.50146 12.334L6.87217 11.891L9.49103 15.0134H2.10502ZM7.40114 11.26L10.0186 8.13618V14.3829L7.40114 11.26ZM6.03368 11.6325C5.96918 11.7095 5.88565 11.7521 5.79908 11.7521C5.71252 11.7521 5.62899 11.7095 5.56449 11.6325L2.10502 7.50654H9.49103L6.03368 11.6325ZM4.19597 11.26L1.57745 14.3829V8.13618L4.19597 11.26ZM10.639 18.7669H3.77075C3.71082 18.7669 3.65189 18.7464 3.59956 18.7074C3.54722 18.6685 3.50322 18.6123 3.47172 18.5443C3.44022 18.4763 3.42227 18.3987 3.41957 18.3188C3.41688 18.239 3.42952 18.1595 3.45631 18.088L4.25682 15.9518H11.9115L10.9535 18.5074C10.9243 18.5854 10.8794 18.6509 10.8239 18.6967C10.7683 18.7426 10.7043 18.7669 10.639 18.7669ZM14.5909 28.1505H11.7772V18.4084L12.698 15.9518H14.5909V28.1505ZM21.2735 15.0134H12.8323V7.03735C12.835 6.00555 12.6401 4.98993 12.2661 4.08675C11.8921 3.18356 11.3514 2.42273 10.6953 1.87635H17.4046C18.4303 1.87797 19.4137 2.42223 20.139 3.38976C20.8643 4.35728 21.2723 5.66907 21.2735 7.03735V15.0134Z" fill="#1E81CE"/>
</svg>
