<svg width="61" height="61" viewBox="0 0 61 61" fill="none" xmlns="http://www.w3.org/2000/svg">
<g clip-path="url(#clip0)">
<path d="M14.9722 34.8414V51.0348H23.1347L20.3699 46.2839V37.277" fill="#F1F2F2"/>
<path d="M14.9722 34.8413L40.5136 43.9254V10.2221L14.9722 19.3061V34.8413Z" fill="#69D2F7"/>
<path d="M33.6895 41.4985L40.513 43.9254V10.2221L33.6895 12.6489V41.4985Z" fill="#4AA7ED"/>
<path d="M14.9719 19.3062H8.1949C4.37576 19.3062 1.27979 22.4021 1.27979 26.2213V27.9262C1.27979 31.7454 4.37576 34.8413 8.1949 34.8413H14.9719V19.3062Z" fill="#6D6FAB"/>
<path d="M41.1892 9.26437C40.8779 9.04476 40.4794 8.99003 40.1208 9.11777L14.7697 18.1342H8.19514C3.7358 18.1342 0.10791 21.7621 0.10791 26.2213V27.9261C0.10791 32.3855 3.7358 36.0134 8.19514 36.0134H13.7999V51.0348C13.7999 51.6821 14.3247 52.2069 14.972 52.2069H23.1347C23.5542 52.2069 23.9416 51.9827 24.1507 51.6191C24.3597 51.2555 24.3586 50.8078 24.1476 50.4452L21.5421 45.9676V38.4218L40.121 45.0296C40.2487 45.0751 40.3815 45.0974 40.5137 45.0974C40.7525 45.0974 40.9894 45.0244 41.1896 44.8829C41.5008 44.6633 41.6859 44.3061 41.6859 43.9254V10.222C41.6855 9.84117 41.5004 9.48398 41.1892 9.26437ZM2.45201 27.9262V26.2214C2.45201 23.0546 5.02826 20.4784 8.19502 20.4784H13.7997V33.6694H11.6719V27.9715C11.6719 27.3241 11.147 26.7994 10.4997 26.7994C9.85252 26.7994 9.32764 27.3241 9.32764 27.9715V33.6694H8.19502C5.02826 33.6693 2.45201 31.093 2.45201 27.9262ZM19.1978 45.1118H18.066C17.4187 45.1118 16.8938 45.6366 16.8938 46.2838C16.8938 46.9311 17.4187 47.4559 18.066 47.4559H19.6959L21.0964 49.8627H16.1441V36.5021L19.1979 37.5882V45.1118H19.1978ZM39.3414 42.2646L34.8555 40.6692V32.3699C34.8555 31.7225 34.3306 31.1978 33.6834 31.1978C33.0362 31.1978 32.5113 31.7225 32.5113 32.3699V39.8355L16.1438 34.0141V20.1333L32.5112 14.312V23.9651C32.5112 24.6124 33.0361 25.1372 33.6833 25.1372C34.3305 25.1372 34.8554 24.6124 34.8554 23.9651V13.4782L39.3412 11.8828L39.3414 42.2646Z" fill="black"/>
<path d="M54.3754 13.212C53.9176 12.7542 53.1757 12.7542 52.7178 13.212C52.2601 13.6697 52.2601 14.4118 52.7178 14.8696C55.9777 18.1294 57.7731 22.4637 57.7731 27.0738C57.7731 31.684 55.9779 36.0183 52.7178 39.2781C52.2601 39.7358 52.2601 40.478 52.7178 40.9357C52.9467 41.1646 53.2467 41.279 53.5466 41.279C53.8465 41.279 54.1465 41.1646 54.3753 40.9357C62.0189 33.2922 62.0189 20.8553 54.3754 13.212Z" fill="black"/>
<path d="M50.6513 16.9357C50.1936 16.478 49.4517 16.478 48.9937 16.9357C48.536 17.3934 48.536 18.1356 48.9937 18.5932C53.6698 23.2695 53.6698 30.8781 48.9937 35.5543C48.536 36.0121 48.536 36.7542 48.9937 37.2118C49.2226 37.4407 49.5226 37.5551 49.8224 37.5551C50.1223 37.5551 50.4223 37.4406 50.6512 37.2118C56.2414 31.6216 56.2414 22.5259 50.6513 16.9357Z" fill="black"/>
<path d="M46.9287 20.6595C46.4709 20.2017 45.729 20.2017 45.271 20.6595C44.8133 21.1172 44.8133 21.8593 45.271 22.317C47.8939 24.9398 47.8939 29.2077 45.271 31.8306C44.8133 32.2883 44.8133 33.0305 45.271 33.4881C45.4999 33.717 45.7999 33.8313 46.0998 33.8313C46.3997 33.8313 46.6997 33.7168 46.9285 33.4881C50.4654 29.9511 50.4654 24.1963 46.9287 20.6595Z" fill="black"/>
<path d="M33.6838 27.0522C33.0366 27.0522 32.5117 27.577 32.5117 28.2244V28.2416C32.5117 28.8889 33.0366 29.4137 33.6838 29.4137C34.3311 29.4137 34.8559 28.8889 34.8559 28.2416V28.2244C34.8558 27.577 34.3309 27.0522 33.6838 27.0522Z" fill="black"/>
<path d="M10.5002 24.8842C11.1475 24.8842 11.6723 24.3594 11.6723 23.712V23.6948C11.6723 23.0475 11.1475 22.5227 10.5002 22.5227C9.85301 22.5227 9.32813 23.0475 9.32813 23.6948V23.712C9.32812 24.3594 9.85301 24.8842 10.5002 24.8842Z" fill="black"/>
</g>
<defs>
<clipPath id="clip0">
<rect width="60" height="60" fill="white" transform="translate(0.10791 0.628357)"/>
</clipPath>
</defs>
</svg>
