<svg width="17" height="17" viewBox="0 0 17 17" fill="none" xmlns="http://www.w3.org/2000/svg">
<g clip-path="url(#clip0)">
<path d="M3.97686 10.2939C4.17385 10.5009 4.27233 10.8113 4.22309 11.1218L3.53365 15.2612C3.43517 15.9855 4.17385 16.5547 4.81406 16.2442L8.35977 14.2781C8.606 14.1228 8.90146 14.1228 9.14772 14.2781L12.6934 16.1925C13.3336 16.5547 14.0723 15.9855 13.9738 15.2094L13.2844 11.0701C13.2352 10.7596 13.3336 10.4491 13.5306 10.2422L16.3869 7.34459C16.8793 6.82718 16.6331 5.89582 15.8944 5.79232L11.9547 5.1714C11.6593 5.11967 11.413 4.96443 11.3145 4.65399L9.54166 0.92856C9.2462 0.25591 8.3105 0.25591 7.96579 0.92856L6.19294 4.65399C6.04519 4.91269 5.79896 5.11967 5.55273 5.1714L1.61304 5.79232C0.923604 5.89578 0.628139 6.82714 1.12059 7.34459L3.97686 10.2939Z" fill="#6DAFE0"/>
<path d="M3.97656 10.2941C4.17355 10.501 4.27203 10.8115 4.22279 11.122L3.53335 15.2613C3.43487 15.9857 4.17355 16.5549 4.81375 16.2444L8.35947 14.2782C8.60569 14.123 8.90116 14.123 9.14742 14.2782L12.6931 16.1927C13.3333 16.5549 14.072 15.9857 13.9735 15.2096L13.4811 12.2603C13.3333 12.2603 13.1856 12.2603 13.0379 12.2603C9.19669 12.2603 6.04492 9.10401 5.79869 5.11987C5.74945 5.17161 5.65094 5.17161 5.6017 5.17161L1.66201 5.79252C0.972573 5.89599 0.67711 6.82735 1.16956 7.3448L3.97656 10.2941Z" fill="#5CA4DA"/>
</g>
<defs>
<clipPath id="clip0">
<rect width="15.767" height="16.5662" fill="white" transform="matrix(-1 0 0 1 16.6431 0.0944824)"/>
</clipPath>
</defs>
</svg>
