<svg width="20" height="18" viewBox="0 0 20 18" fill="none" xmlns="http://www.w3.org/2000/svg">
<path d="M20 2.84808C19.2563 3.18269 18.4637 3.40449 17.6375 3.51218C18.4875 2.99167 19.1363 2.17372 19.4412 1.18782C18.6488 1.67244 17.7738 2.01474 16.8412 2.20577C16.0887 1.38397 15.0162 0.875 13.8462 0.875C11.5763 0.875 9.74875 2.76474 9.74875 5.08141C9.74875 5.41474 9.77625 5.73526 9.84375 6.04038C6.435 5.86987 3.41875 4.19423 1.3925 1.64167C1.03875 2.27115 0.83125 2.99167 0.83125 3.76731C0.83125 5.22372 1.5625 6.51474 2.6525 7.26218C1.99375 7.24936 1.3475 7.05321 0.8 6.74423C0.8 6.75705 0.8 6.77372 0.8 6.79038C0.8 8.83397 2.22125 10.5314 4.085 10.9224C3.75125 11.016 3.3875 11.0609 3.01 11.0609C2.7475 11.0609 2.4825 11.0455 2.23375 10.9891C2.765 12.6545 4.2725 13.8788 6.065 13.9186C4.67 15.0378 2.89875 15.7122 0.98125 15.7122C0.645 15.7122 0.3225 15.6968 0 15.6545C1.81625 16.8558 3.96875 17.5417 6.29 17.5417C13.835 17.5417 17.96 11.1314 17.96 5.575C17.96 5.3891 17.9538 5.20962 17.945 5.03141C18.7588 4.4391 19.4425 3.69936 20 2.84808Z" fill="#5F696B"/>
</svg>
