<svg width="61" height="61" viewBox="0 0 61 61" fill="none" xmlns="http://www.w3.org/2000/svg">
<g clip-path="url(#clip0)">
<path d="M50.3002 30.763C50.3002 41.8682 41.298 50.8704 30.1928 50.8704C19.0877 50.8704 10.0854 41.8682 10.0854 30.763C10.0854 19.6579 19.0877 10.6556 30.1928 10.6556C33.1178 10.6556 35.8962 11.2801 38.4037 12.4038C41.4506 13.7676 44.0941 15.8671 46.1108 18.4774C48.7378 21.8755 50.3002 26.1372 50.3002 30.763Z" fill="#78B9EB"/>
<path d="M30.1928 47.0855C19.7261 47.0855 11.1287 39.0879 10.1747 28.8705C10.1165 29.4936 10.0854 30.1247 10.0854 30.763C10.0854 41.8679 19.0879 50.8704 30.1928 50.8704C41.2978 50.8704 50.3002 41.8679 50.3002 30.763C50.3002 30.1247 50.2692 29.4936 50.2109 28.8705C49.257 39.0879 40.6596 47.0855 30.1928 47.0855Z" fill="#4E8EB5"/>
<path d="M46.1108 18.4774L41.1041 28.0509L35.5923 24.3405L38.4037 12.4038C41.4506 13.7675 44.0941 15.8671 46.1108 18.4774Z" fill="#4E8EB5"/>
<path d="M52.8035 1.70673L43.5224 8.29079L40.8799 12.2153L38.2705 23.2914L40.2327 24.6125L45.1969 15.1219L47.8393 11.1974L54.7657 3.0279L52.8035 1.70673Z" fill="white"/>
<path d="M45.5591 6.84564L43.5219 8.2908L40.8794 12.2153L40.3086 14.6384L44.125 17.1701L45.1964 15.1219L47.8388 11.1974L49.3429 9.4233L45.5591 6.84564Z" fill="#E0E0E0"/>
<path d="M52.6164 14.5154L39.7939 5.78052C38.7102 5.05091 37.2401 5.33778 36.5105 6.42153C35.7809 7.50517 36.0678 8.97528 37.1515 9.70489L49.9785 18.2141L50.6876 20.9729L52.8461 22.4262L54.0355 18.3376L57.598 15.5879L55.4396 14.1347L52.6164 14.5154Z" fill="white"/>
<path d="M36.6606 10.4442L39.8817 12.581L37.2656 23.6848L40.5586 25.9019L45.5569 16.3461L49.2034 18.7651L49.9117 21.5207L53.3577 23.841L54.8057 18.8634L59.1126 15.5391L55.6544 13.2107L52.8341 13.5911L49.1182 11.0598L56.0823 2.8459L52.7897 0.628357L43.4903 7.22543L40.289 5.04457C38.8012 4.04285 36.7758 4.43836 35.7743 5.92605C35.289 6.64676 35.1135 7.51324 35.28 8.3659C35.4465 9.21867 35.935 9.95554 36.6606 10.4442ZM39.9054 23.3231L39.2739 22.898L41.4583 13.6268L44.0707 15.3599L39.9054 23.3231ZM52.816 2.78496L53.4475 3.21011L47.6441 10.0552L45.0545 8.29101L52.816 2.78496ZM37.2458 6.91699C37.7011 6.24082 38.6216 6.06105 39.2939 6.51351L52.3976 15.4399L55.2232 15.0588L56.0821 15.637L53.264 17.8123L52.3333 21.0119L51.4623 20.4255L50.7524 17.6633L37.6465 8.96918C37.3189 8.74863 37.0969 8.41371 37.0212 8.02605C36.9456 7.63851 37.0253 7.24465 37.2458 6.91699Z" fill="black"/>
<path d="M3.37285 39.4644L1.68652 40.016C1.87566 40.594 2.0852 41.1735 2.30937 41.7382L3.95832 41.0836C3.74762 40.5527 3.55074 40.0079 3.37285 39.4644Z" fill="black"/>
<path d="M7.90129 13.4345L6.5009 12.3452C6.12848 12.8242 5.76602 13.3204 5.42383 13.8203L6.88785 14.8224C7.20977 14.3522 7.55078 13.8853 7.90129 13.4345Z" fill="black"/>
<path d="M4.64221 42.6634L3.03662 43.4181C3.29502 43.9677 3.57381 44.5166 3.86537 45.0493L5.42174 44.1976C5.14752 43.6965 4.88526 43.1804 4.64221 42.6634Z" fill="black"/>
<path d="M4.38143 19.3165L2.75908 18.5981C2.51404 19.1517 2.28283 19.7203 2.07178 20.2885L3.73502 20.9063C3.93354 20.3719 4.15092 19.8372 4.38143 19.3165Z" fill="black"/>
<path d="M5.96103 16.2692L4.43865 15.358C4.12729 15.8782 3.82811 16.4147 3.54932 16.9526L5.12443 17.7689C5.3867 17.2632 5.6683 16.7585 5.96103 16.2692Z" fill="black"/>
<path d="M2.05529 32.7328L0.285645 32.8588C0.328652 33.4639 0.390879 34.0755 0.470684 34.6765L2.22943 34.4433C2.15443 33.8777 2.09584 33.3023 2.05529 32.7328Z" fill="black"/>
<path d="M2.50728 36.1393L0.766113 36.48C0.882598 37.076 1.01924 37.6756 1.17182 38.2621L2.88885 37.8154C2.74541 37.2639 2.61686 36.6999 2.50728 36.1393Z" fill="black"/>
<path d="M1.98309 30.7038C1.98309 30.2352 1.9948 29.7609 2.01777 29.2943L0.245898 29.207C0.221406 29.7026 0.208984 30.2062 0.208984 30.7038C0.208984 30.814 0.20957 30.9239 0.210742 31.0337L1.98484 31.0146C1.98367 30.9111 1.98309 30.8075 1.98309 30.7038Z" fill="black"/>
<path d="M10.1719 10.8549L8.91393 9.604C8.48643 10.034 8.06631 10.4828 7.66553 10.9379L8.99713 12.1104C9.37436 11.682 9.76963 11.2596 10.1719 10.8549Z" fill="black"/>
<path d="M2.39477 25.8785L0.646445 25.5765C0.54332 26.1738 0.457188 26.7826 0.390625 27.3859L2.15406 27.5806C2.21676 27.013 2.29773 26.4404 2.39477 25.8785Z" fill="black"/>
<path d="M57.1177 22.6593C57.2806 23.2064 57.4285 23.7656 57.5575 24.3216L59.2858 23.9207C59.1487 23.3295 58.9914 22.7349 58.8182 22.153L57.1177 22.6593Z" fill="black"/>
<path d="M28.5879 2.59537L28.492 0.823608C27.8852 0.856538 27.2727 0.908218 26.6714 0.977593L26.8747 2.74009C27.4403 2.67494 28.0168 2.62619 28.5879 2.59537Z" fill="black"/>
<path d="M32.1446 0.84738C31.5391 0.806834 30.9247 0.784333 30.318 0.780701L30.3071 2.55492C30.8779 2.55832 31.4561 2.57953 32.0259 2.61773L32.1446 0.84738Z" fill="black"/>
<path d="M12.7403 8.56849L11.6431 7.17419C11.1663 7.54931 10.6949 7.94412 10.2417 8.34759L11.4215 9.67263C11.848 9.29295 12.2917 8.92146 12.7403 8.56849Z" fill="black"/>
<path d="M58.127 27.7117L59.8914 27.5251C59.8274 26.9209 59.7441 26.3114 59.6438 25.7136L57.894 26.0075C57.9885 26.57 58.0669 27.1433 58.127 27.7117Z" fill="black"/>
<path d="M18.6137 5.01081L17.8869 3.39233C17.3328 3.64112 16.7792 3.91054 16.2412 4.19296L17.0661 5.76374C17.572 5.49807 18.0927 5.24471 18.6137 5.01081Z" fill="black"/>
<path d="M15.568 6.61024L14.6488 5.0929C14.13 5.40719 13.6138 5.742 13.1143 6.08793L14.1245 7.54645C14.5943 7.22079 15.08 6.9059 15.568 6.61024Z" fill="black"/>
<path d="M21.8346 3.79679L21.3122 2.10132C20.7311 2.28038 20.1482 2.47983 19.5796 2.69429L20.2055 4.35436C20.7402 4.15269 21.2883 3.96519 21.8346 3.79679Z" fill="black"/>
<path d="M25.1739 2.98898L24.8636 1.24207C24.2667 1.348 23.6649 1.47421 23.0747 1.61695L23.4917 3.34148C24.0467 3.2073 24.6127 3.08871 25.1739 2.98898Z" fill="black"/>
<path d="M3.18678 22.535L1.48873 22.0209C1.31295 22.6015 1.15299 23.1953 1.01318 23.7859L2.73971 24.1945C2.87107 23.6392 3.02154 23.0809 3.18678 22.535Z" fill="black"/>
<path d="M50.7632 49.8575L52.063 51.065C52.4761 50.6204 52.8805 50.1575 53.2653 49.6893L51.8944 48.5631C51.5325 49.0037 51.1519 49.4392 50.7632 49.8575Z" fill="black"/>
<path d="M48.2754 52.2299L49.4195 53.586C49.8832 53.1947 50.3411 52.784 50.7799 52.3656L49.5557 51.0815C49.1426 51.4754 48.7118 51.8617 48.2754 52.2299Z" fill="black"/>
<path d="M45.5166 54.2836L46.4874 55.7686C46.9948 55.4369 47.4993 55.0847 47.9867 54.7219L46.9273 53.2988C46.4685 53.6401 45.994 53.9715 45.5166 54.2836Z" fill="black"/>
<path d="M52.9448 47.2024L54.3815 48.2434C54.7372 47.7525 55.0823 47.2441 55.4075 46.7326L53.9101 45.7809C53.6042 46.2624 53.2794 46.7406 52.9448 47.2024Z" fill="black"/>
<path d="M42.5273 55.9863L43.3096 57.5788C43.8546 57.3111 44.3986 57.0229 44.9263 56.7222L44.048 55.1808C43.5516 55.4634 43.0399 55.7346 42.5273 55.9863Z" fill="black"/>
<path d="M57.3442 37.9441L59.059 38.3993C59.2146 37.8131 59.354 37.2142 59.4733 36.6191L57.7338 36.2704C57.6215 36.8299 57.4905 37.3931 57.3442 37.9441Z" fill="black"/>
<path d="M58.0205 34.5754L59.7781 34.8171C59.8606 34.2168 59.9259 33.6055 59.9717 33.0003L58.2026 32.866C58.1595 33.4354 58.0982 34.0105 58.0205 34.5754Z" fill="black"/>
<path d="M60.0287 29.348L58.2563 29.4271C58.2752 29.8503 58.2848 30.2798 58.2848 30.7038C58.2848 30.8521 58.2838 31 58.2814 31.1476L60.0554 31.1751C60.0579 31.0184 60.059 30.8612 60.059 30.7037C60.0588 30.2537 60.0486 29.7975 60.0287 29.348Z" fill="black"/>
<path d="M54.7871 44.3038L56.3397 45.1623C56.6332 44.6316 56.9138 44.0851 57.1737 43.5383L55.5713 42.7767C55.3269 43.2908 55.0631 43.8047 54.7871 44.3038Z" fill="black"/>
<path d="M39.3511 57.3108L39.9317 58.9873C40.5058 58.7883 41.0816 58.5689 41.6427 58.335L40.9598 56.6974C40.4321 56.9174 39.8911 57.1236 39.3511 57.3108Z" fill="black"/>
<path d="M56.2603 41.2046L57.9063 41.867C58.1329 41.3038 58.3449 40.7263 58.5362 40.1509L56.8525 39.5913C56.6726 40.1322 56.4734 40.6751 56.2603 41.2046Z" fill="black"/>
<path d="M36.0415 58.2334L36.4121 59.9685C37.0058 59.8417 37.603 59.6948 38.187 59.5321L37.7106 57.823C37.1614 57.976 36.5998 58.1142 36.0415 58.2334Z" fill="black"/>
<path d="M12.1826 54.6484C12.6674 55.0125 13.1698 55.3662 13.6758 55.7002L14.6528 54.2191C14.1768 53.905 13.7041 53.5722 13.248 53.2296L12.1826 54.6484Z" fill="black"/>
<path d="M18.4985 58.2818C19.0565 58.5176 19.629 58.7389 20.2005 58.9399L20.7892 57.2663C20.252 57.0772 19.7135 56.8691 19.189 56.6475L18.4985 58.2818Z" fill="black"/>
<path d="M15.23 56.6589C15.7553 56.9612 16.297 57.2511 16.8396 57.5207L17.6287 55.9316C17.1185 55.6781 16.609 55.4055 16.1149 55.1211L15.23 56.6589Z" fill="black"/>
<path d="M9.40088 52.2823C9.83787 52.7021 10.2937 53.1145 10.756 53.5076L11.9058 52.1563C11.4708 51.7862 11.0416 51.3981 10.6304 51.0029L9.40088 52.2823Z" fill="black"/>
<path d="M8.3006 48.4745L6.92529 49.5953C7.30814 50.0652 7.71103 50.5298 8.12248 50.9764L9.42724 49.7742C9.03994 49.3541 8.66096 48.9168 8.3006 48.4745Z" fill="black"/>
<path d="M6.29426 45.6811L4.79297 46.6263C5.11605 47.1395 5.45953 47.6501 5.81391 48.1433L7.25496 47.1084C6.92144 46.6443 6.59836 46.164 6.29426 45.6811Z" fill="black"/>
<path d="M21.9429 59.4933C22.5265 59.659 23.1228 59.8087 23.7157 59.9382L24.0946 58.205C23.5371 58.0832 22.9762 57.9424 22.4276 57.7866L21.9429 59.4933Z" fill="black"/>
<path d="M29.2063 58.8391L29.1489 60.6124C29.4758 60.623 29.8071 60.6284 30.134 60.6284C30.4142 60.6284 30.6974 60.6245 30.9759 60.6168L30.9268 58.8432C30.3591 58.8589 29.7779 58.8577 29.2063 58.8391Z" fill="black"/>
<path d="M32.6431 58.7439L32.7989 60.5112C33.404 60.4577 34.0145 60.3851 34.6135 60.2951L34.3499 58.5406C33.7866 58.6253 33.2122 58.6937 32.6431 58.7439Z" fill="black"/>
<path d="M25.5127 60.2735C26.1116 60.3663 26.7218 60.4419 27.3262 60.4983L27.4907 58.7317C26.9221 58.6788 26.3481 58.6076 25.7848 58.5201L25.5127 60.2735Z" fill="black"/>
<path d="M47.6214 19.0541L46.1496 20.0448C48.1199 22.9719 49.2308 26.3542 49.391 29.8759H31.0803V20.7685H33.9781V18.9943H31.0803V11.5645C32.1541 11.6136 33.2215 11.7504 34.2641 11.9754L34.6385 10.2412C33.1863 9.92758 31.6906 9.76855 30.1932 9.76855C18.6169 9.76855 9.19873 19.1866 9.19873 30.763C9.19873 35.1891 10.5766 39.2989 12.9245 42.6883V42.7683H12.98C16.5333 47.8475 22.2739 51.2878 28.8239 51.7116C29.3126 51.8205 29.8092 51.8758 30.3115 51.8758C30.8464 51.8758 31.3747 51.8117 31.8942 51.6883C42.6781 50.8196 51.1877 41.7667 51.1877 30.763C51.1876 26.5693 49.9544 22.5203 47.6214 19.0541ZM49.3922 31.6502C49.236 35.0726 48.1803 38.2642 46.4567 40.9942H40.5422C41.4023 38.1514 41.8881 34.9659 41.9533 31.6502H49.3922ZM40.179 31.6502C40.1105 34.9981 39.5944 38.1934 38.6842 40.9942H31.0801V31.6502H40.179ZM31.6023 49.9314C31.4289 49.9441 31.2549 49.9541 31.0803 49.962V42.7682H38.0328C37.7583 43.4335 37.4597 44.0705 37.1366 44.6739C35.5849 47.5729 33.6554 49.3919 31.6023 49.9314ZM23.4862 44.674C23.1633 44.0705 22.8646 43.4336 22.59 42.7683H29.306V49.9621C29.2358 49.9589 29.1658 49.9552 29.0959 49.9513C27.0147 49.4368 25.057 47.6084 23.4862 44.674ZM10.9942 29.8759C11.1459 26.552 12.1454 23.4456 13.7817 20.7685H20.0805C19.2409 23.5436 18.7572 26.6453 18.674 29.8759H10.9942ZM18.6694 31.6502C18.7345 34.9659 19.2204 38.1514 20.0805 40.9942H13.9295C12.2059 38.2642 11.1504 35.0727 10.994 31.6502H18.6694ZM20.4438 31.6502H29.3061V40.9942H21.9388C21.0285 38.1934 20.5125 34.998 20.4438 31.6502ZM29.306 29.8759H20.4487C20.5364 26.614 21.0498 23.5032 21.9385 20.7685H29.306V29.8759ZM22.5901 18.9944C22.8647 18.3291 23.1633 17.692 23.4863 17.0887C25.1099 14.0557 27.1467 12.2048 29.3062 11.7644V18.9944H22.5901ZM24.8297 12.3052C23.7627 13.3218 22.7823 14.6444 21.9221 16.2512C21.4632 17.1085 21.0493 18.0263 20.6825 18.9943H15.0081C17.4656 15.8307 20.8879 13.4525 24.8297 12.3052ZM15.1953 42.7683H20.6826C21.0493 43.7363 21.4632 44.654 21.9222 45.5113C22.6897 46.9451 23.5529 48.153 24.488 49.1189C20.7881 47.9665 17.5654 45.7233 15.1953 42.7683ZM36.2413 49.0075C37.1354 48.0605 37.9624 46.8905 38.7008 45.5113C39.1597 44.6541 39.5736 43.7363 39.9404 42.7683H45.1911C42.8945 45.6316 39.7971 47.8257 36.2413 49.0075Z" fill="black"/>
</g>
<defs>
<clipPath id="clip0">
<rect width="60" height="60" fill="white" transform="translate(0.133789 0.628357)"/>
</clipPath>
</defs>
</svg>
