<svg width="61" height="61" viewBox="0 0 61 61" fill="none" xmlns="http://www.w3.org/2000/svg">
<path d="M49.5654 25.9409C50.601 25.9409 51.4404 25.1014 51.4404 24.0659C51.4404 23.0303 50.601 22.1909 49.5654 22.1909C48.5299 22.1909 47.6904 23.0303 47.6904 24.0659C47.6904 25.1014 48.5299 25.9409 49.5654 25.9409Z" fill="#FFDE55"/>
<path d="M42.4779 45.4034C42.2457 46.1755 41.938 46.9229 41.5592 47.6346L44.0717 51.1596L40.0967 55.1346L36.5717 52.6221C35.8599 53.0009 35.1126 53.3087 34.3404 53.5409L33.6279 57.8159H28.0029L27.2904 53.5409C26.5183 53.3087 25.7709 53.0009 25.0592 52.6221L21.5342 55.1346L17.5592 51.1596L20.0717 47.6346C19.6929 46.9229 19.3851 46.1755 19.1529 45.4034L14.8779 44.6909V39.0659L19.1529 38.3534C19.4021 37.5874 19.7093 36.8415 20.0717 36.1221L17.5592 32.5971L21.5342 28.6221L25.0592 31.1346C25.7709 30.7558 26.5183 30.448 27.2904 30.2159L28.0029 25.9409H33.6279L34.3404 30.2159C35.1126 30.448 35.8599 30.7558 36.5717 31.1346L40.0967 28.6221L44.0717 32.5971L41.5592 36.1221C41.938 36.8339 42.2457 37.5812 42.4779 38.3534L46.7529 39.0659V44.6909L42.4779 45.4034Z" fill="#57A4FF"/>
<path d="M35.5029 40.0034L30.8154 50.3159V43.7534H26.1279L30.8154 33.4409V40.0034H35.5029Z" fill="#FFDE55"/>
<path d="M30.8154 18.4409C31.851 18.4409 32.6904 17.6015 32.6904 16.5659C32.6904 15.5304 31.851 14.6909 30.8154 14.6909C29.7799 14.6909 28.9404 15.5304 28.9404 16.5659C28.9404 17.6015 29.7799 18.4409 30.8154 18.4409Z" fill="#FFDE55"/>
<path d="M12.0654 25.9409C13.101 25.9409 13.9404 25.1015 13.9404 24.0659C13.9404 23.0304 13.101 22.1909 12.0654 22.1909C11.0299 22.1909 10.1904 23.0304 10.1904 24.0659C10.1904 25.1015 11.0299 25.9409 12.0654 25.9409Z" fill="#FFDE55"/>
<path d="M46.9067 38.1415L43.1951 37.5228C43.0376 37.0732 42.8558 36.6326 42.6504 36.2028L44.8367 33.1428C44.9657 32.9623 45.0265 32.7419 45.0083 32.5208C44.9901 32.2997 44.8941 32.0923 44.7373 31.9353L40.7586 27.9565C40.6016 27.7998 40.3941 27.7038 40.173 27.6856C39.9519 27.6674 39.7315 27.7282 39.5511 27.8572L36.4911 30.0434C36.0613 29.8381 35.6206 29.6562 35.1711 29.4987L34.5523 25.7872C34.5159 25.5683 34.403 25.3694 34.2338 25.2258C34.0645 25.0823 33.8498 25.0035 33.6279 25.0034H28.0029C27.781 25.0035 27.5663 25.0823 27.3971 25.2258C27.2278 25.3694 27.1149 25.5683 27.0786 25.7872L26.4598 29.4987C25.999 29.6608 25.5477 29.8486 25.1079 30.0612C24.5182 29.6 23.5714 28.925 22.0798 27.859C21.8993 27.7301 21.6789 27.6693 21.4578 27.6875C21.2368 27.7057 21.0293 27.8017 20.8723 27.9584L16.8936 31.9353C16.7368 32.0923 16.6408 32.2997 16.6226 32.5208C16.6044 32.7419 16.6652 32.9623 16.7942 33.1428L18.9907 36.2178C18.787 36.6412 18.6076 37.076 18.4536 37.52L14.7242 38.1415C14.5053 38.1779 14.3064 38.2908 14.1629 38.4601C14.0193 38.6293 13.9405 38.844 13.9404 39.0659V44.6909C13.9405 44.9128 14.0193 45.1275 14.1629 45.2968C14.3064 45.466 14.5053 45.5789 14.7242 45.6153L18.4357 46.234C18.5981 46.6947 18.7859 47.146 18.9982 47.5859C18.537 48.1756 17.862 49.1225 16.7961 50.614C16.6671 50.7945 16.6063 51.0149 16.6245 51.236C16.6427 51.4571 16.7387 51.6646 16.8954 51.8215L20.8742 55.8003C21.0312 55.957 21.2386 56.053 21.4597 56.0712C21.6808 56.0894 21.9012 56.0286 22.0817 55.8997L25.1417 53.7134C25.5715 53.9188 26.0121 54.1006 26.4617 54.2581L27.0804 57.9697C27.1168 58.1882 27.2294 58.3869 27.3982 58.5304C27.5671 58.6738 27.7813 58.7529 28.0029 58.7534H33.6279C33.8498 58.7533 34.0645 58.6745 34.2338 58.531C34.403 58.3875 34.5159 58.1886 34.5523 57.9697L35.1711 54.2581C35.6206 54.1006 36.0613 53.9188 36.4911 53.7134L39.5511 55.8997C39.7315 56.0286 39.9519 56.0894 40.173 56.0712C40.3941 56.053 40.6016 55.957 40.7586 55.8003L44.7373 51.8215C44.8941 51.6646 44.9901 51.4571 45.0083 51.236C45.0265 51.0149 44.9657 50.7945 44.8367 50.614L42.6504 47.5531C42.8554 47.1235 43.0373 46.6831 43.1951 46.234L46.9067 45.6153C47.1256 45.5789 47.3245 45.466 47.468 45.2968C47.6115 45.1275 47.6903 44.9128 47.6904 44.6909V39.0659C47.6903 38.844 47.6115 38.6293 47.468 38.4601C47.3245 38.2908 47.1256 38.1779 46.9067 38.1415ZM45.8154 43.8968L42.3261 44.4781C42.1532 44.507 41.9919 44.5839 41.8605 44.6999C41.7291 44.8159 41.6328 44.9664 41.5826 45.1343C41.3679 45.8485 41.0824 46.5394 40.7304 47.1968C40.6479 47.3512 40.6102 47.5255 40.6217 47.7001C40.6331 47.8748 40.6932 48.0427 40.7951 48.185L42.8492 51.0612L39.9945 53.9159L37.1182 51.8618C36.9762 51.7593 36.8082 51.699 36.6334 51.6877C36.4586 51.6764 36.2841 51.7147 36.1301 51.7981C35.4727 52.1499 34.7818 52.4351 34.0676 52.6493C33.8997 52.6995 33.7492 52.7958 33.6332 52.9272C33.5172 53.0586 33.4403 53.2199 33.4114 53.3928L32.8339 56.8784H28.797L28.2157 53.389C28.1868 53.2162 28.11 53.0549 27.994 52.9234C27.878 52.792 27.7274 52.6958 27.5595 52.6456C26.8453 52.4313 26.1544 52.1461 25.497 51.7943C25.343 51.7109 25.1685 51.6727 24.9938 51.684C24.819 51.6952 24.6509 51.7556 24.5089 51.8581L21.6326 53.9122L18.777 51.0575L20.8273 48.1887C20.9315 48.0461 20.9932 47.8771 21.0055 47.7009C21.0178 47.5248 20.98 47.3487 20.8967 47.1931C20.5447 46.5357 20.2592 45.8447 20.0445 45.1306C19.9943 44.9627 19.8981 44.8121 19.7666 44.6961C19.6352 44.5801 19.4739 44.5033 19.3011 44.4743L15.8154 43.8968V39.86L19.3048 39.2787C19.4696 39.2511 19.624 39.18 19.7521 39.0727C19.8802 38.9654 19.9772 38.8258 20.0332 38.6684C20.2751 37.932 20.5715 37.2147 20.9201 36.5225C20.9917 36.3715 21.0217 36.204 21.0068 36.0375C20.992 35.8711 20.9329 35.7116 20.8357 35.5756L18.7817 32.6994L21.6364 29.8437L24.5051 31.894C24.6478 31.998 24.8169 32.0596 24.9931 32.0717C25.1692 32.0839 25.3452 32.046 25.5007 31.9625C26.1581 31.6107 26.8491 31.3255 27.5632 31.1112C27.7312 31.061 27.8817 30.9648 27.9977 30.8334C28.1137 30.702 28.1905 30.5407 28.2195 30.3678L28.797 26.8784H32.8339L33.4151 30.3678C33.4441 30.5407 33.5209 30.702 33.6369 30.8334C33.7529 30.9648 33.9034 31.061 34.0714 31.1112C34.7855 31.3255 35.4765 31.6107 36.1339 31.9625C36.2881 32.0451 36.4624 32.083 36.637 32.0717C36.8117 32.0604 36.9797 32.0005 37.122 31.8987L39.9982 29.8447L42.8529 32.6994L40.7989 35.5756C40.6971 35.7179 40.6372 35.8859 40.6259 36.0606C40.6146 36.2352 40.6525 36.4095 40.7351 36.5637C41.0869 37.2211 41.3721 37.9121 41.5864 38.6262C41.6365 38.7942 41.7328 38.9447 41.8642 39.0607C41.9956 39.1767 42.1569 39.2535 42.3298 39.2825L45.8192 39.8637L45.8154 43.8968Z" fill="black"/>
<path d="M35.5032 39.0659H31.7532V33.4409C31.753 33.2269 31.6797 33.0193 31.5452 32.8527C31.4108 32.6861 31.2234 32.5706 31.0143 32.5252C30.8051 32.4799 30.5867 32.5075 30.3953 32.6035C30.204 32.6994 30.0513 32.858 29.9625 33.0528L25.275 43.3653C25.2101 43.5081 25.182 43.6649 25.1934 43.8213C25.2047 43.9778 25.2552 44.1289 25.3401 44.2608C25.425 44.3927 25.5416 44.5012 25.6793 44.5763C25.817 44.6515 25.9713 44.6909 26.1282 44.6909H29.8782V50.3159C29.878 50.5301 29.9512 50.738 30.0856 50.9048C30.2201 51.0716 30.4075 51.1874 30.6169 51.2328C30.6823 51.2465 30.7489 51.2535 30.8157 51.2534C30.9956 51.2534 31.1717 51.2015 31.323 51.1041C31.4742 51.0067 31.5943 50.8678 31.6688 50.704L36.3563 40.3915C36.4212 40.2487 36.4493 40.0919 36.4379 39.9355C36.4266 39.779 36.3761 39.6279 36.2912 39.496C36.2064 39.3641 36.0897 39.2556 35.952 39.1805C35.8144 39.1053 35.66 39.0659 35.5032 39.0659ZM31.7532 45.9884V43.7534C31.7532 43.5048 31.6544 43.2663 31.4786 43.0905C31.3028 42.9147 31.0643 42.8159 30.8157 42.8159H27.5841L29.8782 37.7684V40.0034C29.8782 40.252 29.9769 40.4905 30.1527 40.6663C30.3286 40.8421 30.567 40.9409 30.8157 40.9409H34.0472L31.7532 45.9884Z" fill="black"/>
<path d="M29.8779 28.7534H31.7529V30.6284H29.8779V28.7534Z" fill="black"/>
<path d="M30.8152 4.37839C32.4164 4.3758 34.0023 4.68998 35.4816 5.30284C36.9609 5.91569 38.3043 6.81512 39.4346 7.94933L40.7583 6.61996C38.1211 3.98307 34.5445 2.50171 30.8152 2.50171C27.0859 2.50171 23.5093 3.98307 20.8721 6.61996L22.1958 7.94933C23.3261 6.81512 24.6695 5.91569 26.1488 5.30284C27.6281 4.68998 29.214 4.3758 30.8152 4.37839Z" fill="black"/>
<path d="M38.1068 9.27492C37.1496 8.31698 36.013 7.55706 34.762 7.03858C33.511 6.5201 32.17 6.25323 30.8158 6.25323C29.4616 6.25323 28.1207 6.5201 26.8697 7.03858C25.6187 7.55706 24.4821 8.31698 23.5249 9.27492L24.8505 10.6005C26.4328 9.01876 28.5785 8.13016 30.8158 8.13016C33.0532 8.13016 35.1989 9.01876 36.7812 10.6005L38.1068 9.27492Z" fill="black"/>
<path d="M35.4556 11.9309C34.847 11.32 34.1238 10.8352 33.3274 10.5045C32.5311 10.1737 31.6773 10.0035 30.8149 10.0035C29.9526 10.0035 29.0988 10.1737 28.3025 10.5045C27.5061 10.8352 26.7829 11.32 26.1743 11.9309L27.5056 13.2509C27.9399 12.8158 28.4558 12.4707 29.0236 12.2352C29.5915 11.9997 30.2002 11.8785 30.8149 11.8785C31.4297 11.8785 32.0384 11.9997 32.6063 12.2352C33.1741 12.4707 33.69 12.8158 34.1243 13.2509L35.4556 11.9309Z" fill="black"/>
<path d="M33.6279 16.5659C33.6279 16.0096 33.463 15.4658 33.1539 15.0033C32.8449 14.5408 32.4056 14.1803 31.8917 13.9674C31.3778 13.7546 30.8123 13.6989 30.2667 13.8074C29.7212 13.9159 29.22 14.1838 28.8267 14.5771C28.4334 14.9705 28.1655 15.4716 28.057 16.0172C27.9485 16.5627 28.0041 17.1282 28.217 17.6422C28.4299 18.1561 28.7904 18.5953 29.2529 18.9044C29.7154 19.2134 30.2592 19.3784 30.8154 19.3784C31.5614 19.3784 32.2767 19.082 32.8042 18.5546C33.3316 18.0271 33.6279 17.3118 33.6279 16.5659ZM30.8154 17.5034C30.63 17.5034 30.4488 17.4484 30.2946 17.3454C30.1404 17.2423 30.0203 17.0959 29.9493 16.9246C29.8783 16.7533 29.8598 16.5648 29.8959 16.383C29.9321 16.2011 30.0214 16.0341 30.1525 15.9029C30.2836 15.7718 30.4507 15.6825 30.6325 15.6464C30.8144 15.6102 31.0029 15.6288 31.1742 15.6997C31.3455 15.7707 31.4919 15.8908 31.5949 16.045C31.698 16.1992 31.7529 16.3804 31.7529 16.5659C31.7529 16.8145 31.6542 17.053 31.4783 17.2288C31.3025 17.4046 31.0641 17.5034 30.8154 17.5034Z" fill="black"/>
<path d="M49.5652 10.0034C47.7183 10.0002 45.889 10.3623 44.1825 11.0688C42.4761 11.7753 40.9262 12.8122 39.6221 14.12L40.9458 15.4494C42.0776 14.3172 43.4213 13.4191 44.9002 12.8064C46.3792 12.1936 47.9643 11.8782 49.5652 11.8782C51.166 11.8782 52.7512 12.1936 54.2301 12.8064C55.709 13.4191 57.0528 14.3172 58.1845 15.4494L59.5083 14.12C58.2041 12.8122 56.6543 11.7753 54.9478 11.0688C53.2414 10.3623 51.4121 10.0002 49.5652 10.0034Z" fill="black"/>
<path d="M42.2749 16.775L43.6005 18.1006C45.1828 16.5188 47.3285 15.6302 49.5658 15.6302C51.8032 15.6302 53.9489 16.5188 55.5312 18.1006L56.8568 16.775C55.8996 15.817 54.763 15.0571 53.512 14.5386C52.261 14.0202 50.92 13.7533 49.5658 13.7533C48.2116 13.7533 46.8707 14.0202 45.6197 14.5386C44.3687 15.0571 43.2321 15.817 42.2749 16.775Z" fill="black"/>
<path d="M44.9248 19.4309L46.2561 20.7509C46.6904 20.3158 47.2062 19.9707 47.7741 19.7352C48.342 19.4997 48.9507 19.3785 49.5654 19.3785C50.1802 19.3785 50.7889 19.4997 51.3568 19.7352C51.9246 19.9707 52.4405 20.3158 52.8748 20.7509L54.2061 19.4309C53.5975 18.82 52.8743 18.3352 52.0779 18.0045C51.2816 17.6737 50.4277 17.5035 49.5654 17.5035C48.7031 17.5035 47.8493 17.6737 47.0529 18.0045C46.2566 18.3352 45.5334 18.82 44.9248 19.4309Z" fill="black"/>
<path d="M49.5654 21.2534C49.0092 21.2534 48.4654 21.4184 48.0029 21.7274C47.5404 22.0365 47.1799 22.4757 46.967 22.9896C46.7541 23.5035 46.6985 24.069 46.807 24.6146C46.9155 25.1602 47.1834 25.6613 47.5767 26.0547C47.97 26.448 48.4712 26.7159 49.0167 26.8244C49.5623 26.9329 50.1278 26.8772 50.6417 26.6643C51.1556 26.4515 51.5949 26.091 51.9039 25.6285C52.213 25.1659 52.3779 24.6222 52.3779 24.0659C52.3779 23.32 52.0816 22.6046 51.5542 22.0772C51.0267 21.5497 50.3114 21.2534 49.5654 21.2534ZM49.5654 25.0034C49.38 25.0034 49.1988 24.9484 49.0446 24.8454C48.8904 24.7424 48.7703 24.596 48.6993 24.4247C48.6283 24.2534 48.6098 24.0649 48.6459 23.883C48.6821 23.7012 48.7714 23.5341 48.9025 23.403C49.0336 23.2719 49.2007 23.1826 49.3825 23.1464C49.5644 23.1103 49.7529 23.1288 49.9242 23.1998C50.0955 23.2707 50.2419 23.3909 50.3449 23.5451C50.4479 23.6992 50.5029 23.8805 50.5029 24.0659C50.5029 24.3146 50.4042 24.553 50.2283 24.7288C50.0525 24.9046 49.8141 25.0034 49.5654 25.0034Z" fill="black"/>
<path d="M20.8662 33.259L22.1918 31.9334L23.5175 33.259L22.1918 34.5847L20.8662 33.259Z" fill="black"/>
<path d="M17.6904 40.9409H19.5654V42.8159H17.6904V40.9409Z" fill="black"/>
<path d="M20.8643 50.4926L22.1899 49.167L23.5155 50.4926L22.1899 51.8182L20.8643 50.4926Z" fill="black"/>
<path d="M29.8779 53.1284H31.7529V55.0034H29.8779V53.1284Z" fill="black"/>
<path d="M38.0972 50.495L39.4228 49.1693L40.7484 50.495L39.4228 51.8206L38.0972 50.495Z" fill="black"/>
<path d="M42.0654 40.9409H43.9404V42.8159H42.0654V40.9409Z" fill="black"/>
<path d="M38.0996 33.2614L39.4252 31.9357L40.7509 33.2614L39.4252 34.587L38.0996 33.2614Z" fill="black"/>
<path d="M29.8779 21.2534H31.7529V23.1284H29.8779V21.2534Z" fill="black"/>
<path d="M48.6279 28.7534H50.5029V30.6284H48.6279V28.7534Z" fill="black"/>
<path d="M48.6279 32.5034H50.5029V36.2534H48.6279V32.5034Z" fill="black"/>
<path d="M20.6846 15.4493L22.0083 14.12C19.3711 11.4831 15.7945 10.0017 12.0652 10.0017C8.33586 10.0017 4.75925 11.4831 2.12207 14.12L3.44582 15.4493C4.57759 14.3172 5.92132 13.4191 7.40025 12.8063C8.87919 12.1936 10.4643 11.8782 12.0652 11.8782C13.666 11.8782 15.2512 12.1936 16.7301 12.8063C18.2091 13.4191 19.5528 14.3172 20.6846 15.4493Z" fill="black"/>
<path d="M18.0307 18.1006L19.3563 16.775C18.3991 15.817 17.2625 15.0571 16.0115 14.5386C14.7605 14.0202 13.4196 13.7533 12.0654 13.7533C10.7111 13.7533 9.37022 14.0202 8.1192 14.5386C6.86818 15.0571 5.7316 15.817 4.77441 16.775L6.10004 18.1006C7.6823 16.5188 9.82803 15.6302 12.0654 15.6302C14.3027 15.6302 16.4484 16.5188 18.0307 18.1006Z" fill="black"/>
<path d="M15.3748 20.7509L16.7061 19.4309C16.0975 18.82 15.3743 18.3352 14.5779 18.0045C13.7816 17.6737 12.9277 17.5035 12.0654 17.5035C11.2031 17.5035 10.3493 17.6737 9.55294 18.0045C8.75659 18.3352 8.03338 18.82 7.4248 19.4309L8.75605 20.7509C9.19039 20.3158 9.70624 19.9707 10.2741 19.7352C10.842 19.4997 11.4507 19.3785 12.0654 19.3785C12.6802 19.3785 13.2889 19.4997 13.8568 19.7352C14.4246 19.9707 14.9405 20.3158 15.3748 20.7509Z" fill="black"/>
<path d="M14.8779 24.0659C14.8779 23.5096 14.713 22.9658 14.4039 22.5033C14.0949 22.0408 13.6556 21.6803 13.1417 21.4674C12.6278 21.2546 12.0623 21.1989 11.5167 21.3074C10.9712 21.4159 10.47 21.6838 10.0767 22.0771C9.68336 22.4705 9.41549 22.9716 9.30697 23.5172C9.19845 24.0627 9.25415 24.6282 9.46702 25.1422C9.67989 25.6561 10.0404 26.0953 10.5029 26.4044C10.9654 26.7134 11.5092 26.8784 12.0654 26.8784C12.8114 26.8784 13.5267 26.582 14.0542 26.0546C14.5816 25.5272 14.8779 24.8118 14.8779 24.0659ZM11.1279 24.0659C11.1279 23.8804 11.1829 23.6992 11.2859 23.545C11.3889 23.3908 11.5354 23.2707 11.7067 23.1997C11.878 23.1288 12.0665 23.1102 12.2483 23.1464C12.4302 23.1825 12.5972 23.2718 12.7283 23.4029C12.8595 23.5341 12.9487 23.7011 12.9849 23.883C13.0211 24.0648 13.0025 24.2533 12.9316 24.4246C12.8606 24.5959 12.7404 24.7423 12.5863 24.8454C12.4321 24.9484 12.2509 25.0034 12.0654 25.0034C11.8168 25.0034 11.5783 24.9046 11.4025 24.7288C11.2267 24.553 11.1279 24.3145 11.1279 24.0659Z" fill="black"/>
<path d="M11.1279 28.7534H13.0029V30.6284H11.1279V28.7534Z" fill="black"/>
<path d="M11.1279 32.5034H13.0029V36.2534H11.1279V32.5034Z" fill="black"/>
</svg>
